<?xml version="1.0" encoding="utf-8"?>
<!-- Generator: Adobe Illustrator 16.0.1, SVG Export Plug-In . SVG Version: 6.00 Build 0)  -->
<!DOCTYPE svg PUBLIC "-//W3C//DTD SVG 1.1//EN" "http://www.w3.org/Graphics/SVG/1.1/DTD/svg11.dtd">
<svg version="1.1" id="Layer_1" xmlns="http://www.w3.org/2000/svg" xmlns:xlink="http://www.w3.org/1999/xlink" x="0px" y="0px"
	 width="80px" height="80px" viewBox="0 0 80 80" enable-background="new 0 0 80 80" xml:space="preserve">
<polygon fill="#FFFFFF" stroke="#000000" stroke-miterlimit="10" points="1.375,34.128 4.397,39.042 4.397,42.481 6.125,48.87 
	8.716,51.326 8.716,55.012 10.875,59.189 10.875,63.12 10.875,66.806 13.033,68.526 13.033,73.439 16.758,77.125 18.215,73.439 
	20.852,69.4 27.761,66.943 31.601,66.068 34.192,65.087 37.214,66.561 39.806,65.087 43.26,65.087 46.713,65.577 51.464,65.577 
	57.05,67.021 59.236,69.509 63.25,77.125 66.125,72.875 66.5,67.625 67.439,64.595 69,61.125 69.168,57.224 72.25,52.625 
	73.485,46.413 75.213,40.517 76.939,37.076 78.667,31.5 75.625,33.75 73.432,38.98 73.432,41.376 70.25,44.625 69.384,50.036 
	67.602,52.432 66.469,57.039 64.687,57.776 64.849,61.093 63.553,64.41 63.229,68.096 61.935,69.386 59.182,66.253 56.753,64.041 
	54.972,64.041 56.105,60.172 56.429,55.012 57.562,52.063 57.724,49.115 59.506,47.088 59.182,43.587 61.125,41.929 63.5,35.875 
	66.125,29.625 65.496,25.712 67.277,15.946 63,23.75 61.448,32.346 59.182,35.11 58.857,40.454 56.125,42.875 56.105,47.272 53,54 
	54.162,57.224 51.5,60.125 51.88,62.809 49.655,63 47.25,61.375 44.608,62.936 44.285,59.803 45.095,55.012 44.285,50.773 
	45.256,46.535 44.285,42.481 43.151,34.373 43.961,31.24 42.99,26.818 44.122,24.054 45.418,19.631 45.256,16.499 44.447,9.68 
	43.799,5.258 42.665,2.125 40.965,6.02 41.451,10.442 42.827,14.103 41.856,17.604 40,22.375 41.047,27.739 40,31.375 40,35 
	40.021,38.875 41.856,43.955 40.723,49.115 41.125,52.75 40.021,56.375 40.75,60.375 40.875,62.567 38.294,62.567 36.675,63.488 
	33.759,62.383 31.007,62.752 30.625,60.125 30.5,56.625 27.875,54.25 27.875,50.625 26,47.125 26.25,43.25 24.375,40 23.875,34.875 
	22.625,30.75 22.625,28.25 21.446,26.557 21.25,18.5 18.377,16.314 17.082,13.182 17.243,17.789 18.377,19.263 17.243,22.396 
	18.863,33.083 20.968,35.479 20.644,38.243 21.616,41.929 22.911,43.587 22.911,46.351 24.207,49.668 24.044,52.985 25.987,58.514 
	27.445,64.41 24.692,65.7 19.672,67.727 18.25,69.625 16.919,71.044 15.462,69.201 15.375,64.75 14.375,63.875 14.625,60.75 
	13.25,56.75 12.25,53.875 11.5,49.5 9.25,46 8.375,40 6.125,36.5 "/>
</svg>
