<svg xmlns="http://www.w3.org/2000/svg" xmlns:xlink="http://www.w3.org/1999/xlink" version="1.1" x="0px" y="0px" viewBox="0 0 100 100" enable-background="new 0 0 100 100" xml:space="preserve"><path d="M69.286,11.429c10.634,0,19.286,8.652,19.286,19.286v38.571c0,10.634-8.652,19.286-19.286,19.286H30.714  c-10.634,0-19.286-8.652-19.286-19.286V30.714c0-10.634,8.652-19.286,19.286-19.286H69.286 M69.286,5H30.714  C16.513,5,5,16.513,5,30.714v38.571C5,83.487,16.513,95,30.714,95h38.571C83.487,95,95,83.487,95,69.286V30.714  C95,16.513,83.487,5,69.286,5L69.286,5z"></path><circle cx="50" cy="50" r="6.429"></circle></svg>