<?xml version="1.0" encoding="utf-8"?>
<!-- Generator: Adobe Illustrator 16.0.1, SVG Export Plug-In . SVG Version: 6.00 Build 0)  -->
<!DOCTYPE svg PUBLIC "-//W3C//DTD SVG 1.1//EN" "http://www.w3.org/Graphics/SVG/1.1/DTD/svg11.dtd">
<svg version="1.1" id="Layer_1" xmlns="http://www.w3.org/2000/svg" xmlns:xlink="http://www.w3.org/1999/xlink" x="0px" y="0px"
	 width="80px" height="80px" viewBox="0 0 80 80" enable-background="new 0 0 80 80" xml:space="preserve">
<path d="M55.226,9.303c8.439,0,15.306,6.867,15.306,15.308v30.615c0,8.439-6.866,15.306-15.306,15.306H24.609
	c-8.439,0-15.307-6.865-15.307-15.306V24.609c0-8.44,6.868-15.308,15.307-15.308L55.226,9.303 M55.226,4.2H24.609
	C13.338,4.2,4.2,13.337,4.2,24.609v30.614c0,11.272,9.138,20.41,20.409,20.41h30.615c11.272,0,20.41-9.138,20.41-20.408V24.609
	C75.634,13.337,66.496,4.2,55.226,4.2L55.226,4.2z"/>
<circle cx="24.99" cy="24.99" r="5.198"/>
<circle cx="56.178" cy="56.176" r="5.198"/>
<circle cx="40.584" cy="40.584" r="5.198"/>
</svg>
